<svg xmlns="http://www.w3.org/2000/svg" viewBox="0 0 754.2 284" width="754.2" height="284" role="img" aria-labelledby="diagram-title diagram-description" font-family="'IBM Plex Sans','Helvetica Neue',Arial,sans-serif">
<title id="diagram-title">pi-dev architecture</title>
<desc id="diagram-description">Developers and agents use pi-dev surfaces to inspect Pi's public runtime, exercise terminal UI features, and trace lifecycle metadata.</desc>
<rect x="0.5" y="0.5" width="753.2" height="283" rx="6" fill="#ffffff" stroke="#dce6f5"/>
<text x="32" y="40" font-size="17" font-family="'Domine',Georgia,'Times New Roman',serif" fill="#010c3f">pi-dev architecture</text>
<line x1="32" y1="54" x2="722.2" y2="54" stroke="#dce6f5"/>
<defs><marker id="arrow-solid" markerWidth="9" markerHeight="9" refX="8" refY="4.5" orient="auto" markerUnits="userSpaceOnUse"><path d="M0,0.8 L8,4.5 L0,8.2 z" fill="#0464cd"/></marker><marker id="arrow-dashed" markerWidth="9" markerHeight="9" refX="8" refY="4.5" orient="auto" markerUnits="userSpaceOnUse"><path d="M0,0.8 L8,4.5 L0,8.2 z" fill="#7a869f"/></marker></defs>
<path d="M177,117.5 C225.6,117.5 225.6,166 274.2,166" fill="none" stroke="#0464cd" stroke-width="1.5" marker-end="url(#arrow-solid)"/>
<path d="M170,214.5 C222.1,214.5 222.1,166 274.2,166" fill="none" stroke="#0464cd" stroke-width="1.5" marker-end="url(#arrow-solid)"/>
<path d="M469.2,166 C516.2,166 516.2,166 563.2,166" fill="none" stroke="#0464cd" stroke-width="1.5" marker-end="url(#arrow-solid)"/>
<rect x="32" y="82" width="145" height="71" rx="4" fill="#ffffff" stroke="#032c7b" stroke-width="1.5"/>
<text x="104.5" y="101" font-size="9" font-weight="600" letter-spacing="0.1em" text-anchor="middle" fill="#0464cd">PI SESSION</text>
<text x="104.5" y="121" font-size="13" font-weight="600" text-anchor="middle" fill="#010c3f">Developer</text>
<text x="104.5" y="139" font-size="11" text-anchor="middle" fill="#5b6478">/dev and Ctrl+Shift+U</text>
<rect x="39" y="179" width="131" height="71" rx="4" fill="#ffffff" stroke="#032c7b" stroke-width="1.5"/>
<text x="104.5" y="198" font-size="9" font-weight="600" letter-spacing="0.1em" text-anchor="middle" fill="#0464cd">PI SESSION</text>
<text x="104.5" y="218" font-size="13" font-weight="600" text-anchor="middle" fill="#010c3f">Agent</text>
<text x="104.5" y="236" font-size="11" text-anchor="middle" fill="#5b6478">calls pi_dev_demo</text>
<rect x="274.2" y="130.5" width="195" height="71" rx="4" fill="#032c7b" stroke="#032c7b" stroke-width="1"/>
<text x="371.7" y="149.5" font-size="9" font-weight="600" letter-spacing="0.1em" text-anchor="middle" fill="#9fd47b">EXTENSION</text>
<text x="371.7" y="169.5" font-size="13" font-weight="600" text-anchor="middle" fill="#ffffff">pi-dev</text>
<text x="371.7" y="187.5" font-size="11" text-anchor="middle" fill="#cfdaf0">inspect, demo, trace, diagnose</text>
<rect x="563.2" y="130.5" width="159" height="71" rx="4" fill="#9fd47b" stroke="#032c7b" stroke-width="1.5"/>
<text x="642.7" y="149.5" font-size="9" font-weight="600" letter-spacing="0.1em" text-anchor="middle" fill="#032c7b">HOST</text>
<text x="642.7" y="169.5" font-size="13" font-weight="600" text-anchor="middle" fill="#010c3f">Pi public APIs</text>
<text x="642.7" y="187.5" font-size="11" text-anchor="middle" fill="#010c3f">runtime, session and UI</text>
<rect x="191" y="132.8" width="69.2" height="18" rx="3" fill="#ffffff"/><text x="225.6" y="145.8" font-size="11" text-anchor="middle" fill="#28303f">commands</text>
<rect x="194.9" y="181.3" width="54.4" height="18" rx="3" fill="#ffffff"/><text x="222.1" y="194.3" font-size="11" text-anchor="middle" fill="#28303f">tool call</text>
<rect x="483.2" y="157" width="66" height="18" rx="3" fill="#ffffff"/><text x="516.2" y="170" font-size="11" text-anchor="middle" fill="#28303f">public API</text>
<text x="722.2" y="270" font-size="9" letter-spacing="0.16em" text-anchor="end" fill="#9a9a9a">CAAIR</text>
</svg>
